<svg width="70" height="70" viewBox="0 0 70 70" fill="none" xmlns="http://www.w3.org/2000/svg">
<path d="M26.25 25.6375V44.3625C26.25 45.7625 26.8625 46.7833 28.0875 47.425C29.3125 48.0667 30.5083 48.0083 31.675 47.25L46.2 37.975C47.3083 37.3333 47.8625 36.3417 47.8625 35C47.8625 33.6583 47.3083 32.6667 46.2 32.025L31.675 22.75C30.5083 21.9917 29.3125 21.9333 28.0875 22.575C26.8625 23.2167 26.25 24.2375 26.25 25.6375ZM35 70C30.1583 70 25.6083 69.0807 21.35 67.242C17.0917 65.4033 13.3875 62.9102 10.2375 59.7625C7.0875 56.6125 4.59433 52.9083 2.758 48.65C0.921667 44.3917 0.00233333 39.8417 0 35C0 30.1583 0.919334 25.6083 2.758 21.35C4.59667 17.0917 7.08983 13.3875 10.2375 10.2375C13.3875 7.0875 17.0917 4.59433 21.35 2.758C25.6083 0.921667 30.1583 0.00233333 35 0C39.8417 0 44.3917 0.919334 48.65 2.758C52.9083 4.59667 56.6125 7.08983 59.7625 10.2375C62.9125 13.3875 65.4068 17.0917 67.2455 21.35C69.0842 25.6083 70.0023 30.1583 70 35C70 39.8417 69.0807 44.3917 67.242 48.65C65.4033 52.9083 62.9102 56.6125 59.7625 59.7625C56.6125 62.9125 52.9083 65.4068 48.65 67.2455C44.3917 69.0842 39.8417 70.0023 35 70ZM35 63C42.7583 63 49.3652 60.2735 54.8205 54.8205C60.2758 49.3675 63.0023 42.7607 63 35C63 27.2417 60.2735 20.6348 54.8205 15.1795C49.3675 9.72417 42.7607 6.99767 35 7C27.2417 7 20.6348 9.7265 15.1795 15.1795C9.72417 20.6325 6.99767 27.2393 7 35C7 42.7583 9.7265 49.3652 15.1795 54.8205C20.6325 60.2758 27.2393 63.0023 35 63Z" fill="white"/>
</svg>
