<svg width="15" height="15" viewBox="0 0 15 15" fill="none" xmlns="http://www.w3.org/2000/svg">
<path d="M14.8168 13.9549L12.2387 11.4344L12.1783 11.3425C12.066 11.2306 11.9123 11.1676 11.752 11.1676C11.5917 11.1676 11.438 11.2306 11.3257 11.3425C9.13473 13.3525 5.75873 13.4618 3.43663 11.5978C1.11452 9.73382 0.566873 6.47503 2.15689 3.98263C3.7469 1.49023 6.98118 0.537635 9.71476 1.7566C12.4483 2.97557 13.833 5.98784 12.9504 8.7957C12.8868 8.99854 12.9388 9.21913 13.0867 9.37437C13.2346 9.52961 13.4559 9.59592 13.6674 9.54832C13.8789 9.50071 14.0483 9.34643 14.1118 9.14358C15.1669 5.81148 13.5734 2.22567 10.3622 0.705793C7.15099 -0.814079 3.28575 0.188118 1.26691 3.06406C-0.751925 5.94001 -0.318494 9.82661 2.28682 12.2096C4.89213 14.5926 8.88746 14.7569 11.6882 12.5962L13.9709 14.8279C14.2066 15.0574 14.5877 15.0574 14.8235 14.8279C15.059 14.5952 15.059 14.2204 14.8235 13.9877L14.8168 13.9549Z" fill="#454868" fill-opacity="0.55"/>
</svg>
